<svg xmlns="http://www.w3.org/2000/svg" version="1.1" xmlns:xlink="http://www.w3.org/1999/xlink" xmlns:svgjs="http://svgjs.dev/svgjs" width="32" height="32"><svg width="32" height="32" viewBox="0 0 32 32" fill="none" xmlns="http://www.w3.org/2000/svg">
<path d="M8.8667 11.3503C8.8667 11.3503 7.72004 12.0388 7.46448 13.1708C7.20893 14.3028 7.46448 15.5423 7.46448 15.5423C7.46448 15.5423 5.66626 16.2841 5.66626 18.617C5.66626 20.9499 7.18315 21.6095 7.18315 21.6095C7.18315 21.6095 7.20093 24.3628 8.89826 25.8477C10.5956 27.3326 12.3765 27.3397 12.3765 27.3397C12.3765 27.3397 13.3027 29.2988 16.0276 29.2988C18.7525 29.2988 19.6791 27.3397 19.6791 27.3397C19.6791 27.3397 21.5236 27.0703 23.1574 25.8477C24.7911 24.6255 24.7463 21.6095 24.7463 21.6095C24.7463 21.6095 26.3894 20.9503 26.3894 18.617C26.3894 16.2837 24.5907 15.5428 24.5907 15.5428C24.5907 15.5428 24.8471 14.3028 24.5907 13.1708C24.3343 12.0388 23.1885 11.3503 23.1885 11.3503" fill="#B22EC8"></path>
<path d="M24.6436 14.857C24.6436 10.093 20.7814 8.75122 16.0179 8.75122C11.2543 8.75122 7.39209 10.0934 7.39209 14.857C7.39209 19.6206 11.2543 23.4828 16.0179 23.4828C20.7814 23.4828 24.6436 19.6206 24.6436 14.857Z" fill="#B22EC8"></path>
<path d="M16.292 29.2925C16.292 29.2925 18.6244 27.6614 18.472 23.9099C19.4751 22.8663 19.7862 21.4641 18.8751 19.7601C20.4142 17.5663 20.2542 15.193 18.4129 13.3939C19.1715 12.2988 18.7747 11.3503 17.9169 10.6379C17.9169 10.6379 20.3858 11.8485 22.2769 10.1174C22.2769 10.1174 26.2515 12.9752 24.5907 15.5428C24.5907 15.5428 28.9791 18.5085 24.7462 21.6094C24.7462 21.6094 25.3644 26.3361 19.7862 27.3205C19.7862 27.3205 18.3178 28.9828 16.292 29.2925V29.2925Z" fill="#6A107A"></path>
<path d="M24.7911 5.00538C22.8933 13.8618 17.0689 10.8423 16.2773 9.28494C15.4862 7.72716 16.2507 1.52583 24.7911 5.00494V5.00538Z" fill="#0F805D"></path>
<path d="M7.26392 5.00538C9.16169 13.8618 14.9861 10.8423 15.7777 9.28494C16.5688 7.72716 15.8044 1.52583 7.26392 5.00494V5.00538Z" fill="#0F805D"></path>
<path d="M24.7911 5.00538C22.8933 13.8618 17.0689 10.8423 16.2773 9.28494C15.4862 7.72716 16.2507 1.52583 24.7911 5.00494V5.00538Z" stroke="black" stroke-width="2" stroke-miterlimit="10" stroke-linecap="round" stroke-linejoin="round"></path>
<path d="M20.2541 6.79738C18.863 7.3316 17.0812 8.19072 16.2919 9.31072M7.26392 5.00538C9.16169 13.8618 14.9861 10.8423 15.7777 9.28494C16.5688 7.72716 15.8044 1.52583 7.26392 5.00494V5.00538Z" stroke="black" stroke-width="2" stroke-miterlimit="10" stroke-linecap="round" stroke-linejoin="round"></path>
<path d="M11.8009 6.79736C13.1925 7.33159 14.9738 8.1907 15.7631 9.3107M8.8667 11.3503C8.8667 11.3503 7.72004 12.0387 7.46448 13.1707C7.20893 14.3027 7.46448 15.5423 7.46448 15.5423C7.46448 15.5423 5.66626 16.284 5.66626 18.6169C5.66626 20.9498 7.18315 21.6094 7.18315 21.6094C7.18315 21.6094 7.20093 24.3627 8.89826 25.8476C10.5956 27.3325 12.3765 27.3396 12.3765 27.3396C12.3765 27.3396 13.3027 29.2987 16.0276 29.2987C18.7525 29.2987 19.6791 27.3396 19.6791 27.3396C19.6791 27.3396 21.5236 27.0703 23.1574 25.8476C24.7911 24.6254 24.7463 21.6094 24.7463 21.6094C24.7463 21.6094 26.3894 20.9503 26.3894 18.6169C26.3894 16.2836 24.5907 15.5427 24.5907 15.5427C24.5907 15.5427 24.8471 14.3027 24.5907 13.1707C24.3343 12.0387 23.1885 11.3503 23.1885 11.3503" stroke="black" stroke-width="2" stroke-miterlimit="10" stroke-linecap="round" stroke-linejoin="round"></path>
<path d="M18.7746 13.1001C18.7746 13.1001 17.612 14.3299 16.1773 14.3299M13.4809 13.1001C13.4809 13.1001 14.6435 14.3299 16.0782 14.3299M22.2498 17.5663C22.2498 18.8517 21.1466 19.8934 19.7862 19.8934M17.228 17.5663C17.228 18.8517 18.3311 19.8934 19.6915 19.8934M15.0591 17.5663C15.0591 18.8517 13.956 19.8934 12.5951 19.8934M10.0369 17.5663C10.0369 18.8517 11.14 19.8934 12.5009 19.8934M18.6244 23.9388C18.1604 24.5561 17.22 24.9783 16.1351 24.9783M13.4849 23.8632C13.9271 24.521 14.8995 24.9783 16.028 24.9783M13.4622 24.0223C13.4622 24.5734 13.1204 25.0708 12.5742 25.4197M18.6511 24.0223C18.6511 24.6237 19.0569 25.1601 19.6915 25.5103" stroke="black" stroke-width="2" stroke-miterlimit="10" stroke-linecap="round" stroke-linejoin="round"></path>
<path d="M10.405 18.9654C10.405 20.0169 9.66681 20.9054 8.65303 21.1938M11.1166 13.0845C11.1166 14.46 10.0135 15.5756 8.65259 15.5756M20.6104 13.0845C20.6104 14.46 21.7135 15.5756 23.0744 15.5756M21.8895 18.9654C21.8895 19.9698 22.5633 20.8254 23.5073 21.152" stroke="black" stroke-width="2" stroke-miterlimit="10" stroke-linecap="round" stroke-linejoin="round"></path>
</svg><style>@media (prefers-color-scheme: light) { :root { filter: none; } }
@media (prefers-color-scheme: dark) { :root { filter: none; } }
</style></svg>