<svg viewBox="0 0 20 20" fill="none" xmlns="http://www.w3.org/2000/svg"><path d="M18.16 2.81a1.24 1.24 0 0 0-1.26-.2l-14.34 5.8a1.23 1.23 0 0 0 .07 2.3l3.09 1.07 1.68 5.54.01.03c.02.05.05.09.08.12.05.06.11.1.18.12l.02.01h.2l.01-.01a.4.4 0 0 0 .16-.1l.02-.01 2.4-2.66 3.52 2.72a1.24 1.24 0 0 0 1.96-.73l2.62-12.81a1.23 1.23 0 0 0-.42-1.19Zm-9.89 10.03-.57 2.75-1.18-3.9 5.86-3.05-4 4a.4.4 0 0 0-.11.2Zm6.91 3.81a.43.43 0 0 1-.28.32.42.42 0 0 1-.4-.06l-3.82-2.95a.4.4 0 0 0-.54.05l-1.68 1.85.57-2.75 5.75-5.75a.4.4 0 0 0-.47-.64l-8.29 4.32-3.13-1.09a.42.42 0 0 1-.29-.39.43.43 0 0 1 .27-.41l14.33-5.8a.43.43 0 0 1 .44.08.42.42 0 0 1 .15.41l-2.6 12.81Z" fill="currentColor"/></svg>